<svg xmlns="http://www.w3.org/2000/svg" xmlns:xlink="http://www.w3.org/1999/xlink" id="svg" version="1.1" viewBox="51.6 85.33 296.8 223.07"><g id="svgg"><path id="path0" d="M195.200 86.600 C 195.200 87.000,194.800 87.200,194.000 87.200 C 193.340 87.200,192.800 87.380,192.800 87.600 C 192.800 87.820,192.386 88.000,191.880 88.000 C 190.826 88.000,188.808 88.853,188.803 89.300 C 188.801 89.465,188.440 89.600,188.000 89.600 C 187.560 89.600,187.200 89.780,187.200 90.000 C 187.200 90.220,186.975 90.404,186.700 90.409 C 186.425 90.414,185.750 90.770,185.200 91.200 C 184.650 91.630,183.885 91.986,183.500 91.991 C 183.097 91.996,182.800 92.304,182.800 92.717 C 182.800 93.111,181.991 94.326,181.002 95.417 C 180.013 96.508,179.203 97.681,179.202 98.025 C 179.201 98.368,178.840 99.036,178.400 99.508 C 177.960 99.980,177.600 100.644,177.600 100.983 C 177.600 101.322,177.318 101.600,176.973 101.600 C 176.528 101.600,176.420 101.832,176.601 102.402 C 176.770 102.935,176.645 103.285,176.228 103.445 C 175.882 103.577,175.600 104.026,175.600 104.443 C 175.600 104.859,175.420 105.200,175.200 105.200 C 174.980 105.200,174.800 105.470,174.800 105.800 C 174.800 106.130,175.070 106.400,175.400 106.400 C 175.733 106.400,176.000 106.756,176.000 107.200 C 176.000 107.640,175.820 108.000,175.600 108.000 C 175.378 108.000,175.200 109.067,175.200 110.400 C 175.200 111.733,175.378 112.800,175.600 112.800 C 175.820 112.800,176.000 113.160,176.000 113.600 C 176.000 114.044,175.733 114.400,175.400 114.400 C 174.503 114.400,174.674 115.121,175.824 116.187 C 176.673 116.974,176.805 117.368,176.595 118.485 C 176.377 119.647,176.481 119.908,177.345 120.371 C 178.047 120.747,178.426 121.370,178.609 122.454 C 178.753 123.304,179.043 124.000,179.253 124.000 C 180.014 124.000,181.673 126.032,181.430 126.666 C 181.190 127.292,182.521 128.800,183.315 128.800 C 183.724 128.800,185.599 130.813,185.600 131.253 C 185.600 131.393,185.960 131.601,186.400 131.716 C 187.166 131.916,187.590 133.600,186.875 133.600 C 186.696 133.600,186.301 134.234,185.997 135.009 C 185.693 135.783,185.119 136.711,184.722 137.071 C 184.325 137.430,184.000 138.056,184.000 138.462 C 184.000 138.877,183.715 139.200,183.350 139.200 C 182.839 139.200,182.752 139.460,182.943 140.416 C 183.202 141.711,182.546 143.200,181.716 143.200 C 181.446 143.200,181.325 143.461,181.447 143.779 C 181.570 144.098,181.294 144.762,180.835 145.255 C 180.376 145.748,179.994 146.432,179.987 146.775 C 179.971 147.578,179.046 148.800,178.456 148.800 C 178.205 148.800,178.000 149.132,178.000 149.538 C 178.000 149.944,177.550 150.799,177.000 151.438 C 176.451 152.077,176.001 152.825,176.000 153.100 C 176.000 153.375,175.820 153.600,175.600 153.600 C 175.380 153.600,175.200 153.894,175.200 154.253 C 175.200 154.612,174.876 155.197,174.480 155.553 C 174.083 155.909,173.455 156.855,173.082 157.655 C 172.710 158.455,171.864 159.689,171.203 160.397 C 170.541 161.105,170.000 161.839,170.000 162.029 C 170.000 162.218,169.460 162.925,168.800 163.600 C 168.140 164.275,167.600 164.974,167.600 165.153 C 167.600 165.674,166.149 167.200,165.653 167.200 C 165.404 167.200,165.200 167.551,165.200 167.980 C 165.200 168.827,163.050 171.057,161.863 171.440 C 161.388 171.593,161.195 171.938,161.320 172.414 C 161.563 173.345,152.642 182.578,151.809 182.259 C 151.510 182.144,151.172 182.295,151.058 182.594 C 150.933 182.919,150.517 183.051,150.024 182.922 C 149.375 182.753,149.200 182.895,149.200 183.591 C 149.200 184.138,148.896 184.554,148.400 184.684 C 147.960 184.799,147.600 185.013,147.600 185.160 C 147.600 185.526,141.055 185.473,140.780 185.105 C 140.659 184.943,139.966 184.746,139.241 184.666 C 138.516 184.587,137.791 184.308,137.629 184.047 C 137.468 183.786,137.037 183.688,136.671 183.828 C 136.253 183.988,135.914 183.842,135.758 183.434 C 135.619 183.074,135.127 182.818,134.654 182.860 C 133.461 182.967,131.200 182.371,131.200 181.950 C 131.200 181.758,130.700 181.600,130.088 181.600 C 129.435 181.600,128.739 181.270,128.400 180.800 C 128.061 180.330,127.365 180.000,126.712 180.000 C 126.100 180.000,125.600 179.820,125.600 179.600 C 125.600 179.380,125.330 179.200,125.000 179.200 C 124.670 179.200,124.400 179.020,124.400 178.800 C 124.400 178.580,124.027 178.400,123.571 178.400 C 122.672 178.400,121.600 177.531,121.600 176.802 C 121.600 176.533,121.282 176.447,120.825 176.592 C 119.916 176.880,118.400 176.048,118.400 175.261 C 118.400 174.960,118.164 174.805,117.875 174.916 C 117.587 175.026,116.912 174.780,116.375 174.367 C 115.839 173.955,115.175 173.614,114.900 173.609 C 114.625 173.604,114.400 173.420,114.400 173.200 C 114.400 172.980,114.080 172.800,113.688 172.800 C 113.297 172.800,112.717 172.440,112.400 172.000 C 112.083 171.560,111.503 171.200,111.112 171.200 C 110.720 171.200,110.400 171.020,110.400 170.800 C 110.400 170.580,110.164 170.400,109.875 170.400 C 109.587 170.400,109.002 170.085,108.575 169.700 C 108.149 169.315,107.325 168.755,106.744 168.456 C 106.163 168.157,105.457 167.480,105.174 166.951 C 104.827 166.303,104.431 166.063,103.955 166.214 C 103.126 166.477,101.600 165.628,101.600 164.904 C 101.600 164.627,101.420 164.400,101.200 164.400 C 100.980 164.400,100.800 163.871,100.800 163.224 C 100.800 162.577,100.980 161.936,101.200 161.800 C 101.420 161.664,101.600 161.203,101.600 160.776 C 101.600 160.349,101.780 160.000,102.000 160.000 C 102.220 160.000,102.400 159.460,102.400 158.800 C 102.400 158.021,102.603 157.600,102.977 157.600 C 103.671 157.600,103.424 146.966,102.710 146.097 C 102.482 145.820,102.398 144.965,102.523 144.197 C 102.648 143.428,102.594 142.800,102.404 142.800 C 101.867 142.800,100.814 140.428,101.063 139.779 C 101.201 139.422,101.040 139.200,100.643 139.200 C 100.273 139.200,100.000 138.870,100.000 138.424 C 100.000 137.997,99.820 137.536,99.600 137.400 C 99.380 137.264,99.200 136.798,99.200 136.364 C 99.200 135.930,98.885 135.456,98.500 135.310 C 97.658 134.991,96.800 134.186,96.800 133.716 C 96.800 133.529,96.305 133.158,95.700 132.891 C 94.694 132.449,92.507 131.010,91.317 130.007 C 91.051 129.783,90.485 129.600,90.060 129.600 C 89.634 129.600,89.182 129.330,89.055 129.000 C 88.929 128.670,88.549 128.400,88.213 128.400 C 87.876 128.400,87.600 128.218,87.600 127.995 C 87.600 127.749,86.992 127.688,86.050 127.838 C 85.090 127.992,84.396 127.918,84.227 127.643 C 84.076 127.399,83.063 127.200,81.976 127.200 C 80.486 127.200,80.000 127.052,80.000 126.600 C 80.000 126.167,79.556 126.000,78.400 126.000 C 77.210 126.000,76.800 126.162,76.800 126.630 C 76.800 127.156,76.405 127.226,74.400 127.054 C 72.402 126.883,72.000 126.953,72.000 127.474 C 72.000 127.958,71.724 128.045,70.785 127.857 C 69.913 127.683,69.505 127.782,69.342 128.207 C 69.217 128.533,68.881 128.800,68.595 128.800 C 67.843 128.800,64.800 130.485,64.800 130.901 C 64.800 131.095,64.440 131.140,64.000 131.000 C 63.527 130.850,63.200 130.928,63.200 131.191 C 63.200 131.989,61.275 133.604,60.622 133.353 C 60.218 133.198,60.000 133.340,60.000 133.757 C 60.000 134.111,59.820 134.400,59.600 134.400 C 59.380 134.400,59.200 134.636,59.200 134.925 C 59.200 135.213,58.880 135.798,58.489 136.225 C 57.178 137.655,56.000 139.518,56.000 140.162 C 56.000 140.513,55.820 140.800,55.600 140.800 C 55.380 140.800,55.200 141.160,55.200 141.600 C 55.200 142.040,55.020 142.400,54.800 142.400 C 54.580 142.400,54.400 142.766,54.400 143.213 C 54.400 143.659,54.157 144.118,53.859 144.233 C 53.529 144.359,53.391 144.821,53.506 145.420 C 53.642 146.133,53.517 146.400,53.047 146.400 C 52.691 146.400,52.400 146.580,52.400 146.800 C 52.400 147.020,52.592 147.200,52.827 147.200 C 53.089 147.200,53.142 147.548,52.965 148.100 C 52.390 149.888,52.461 156.400,53.055 156.400 C 53.411 156.400,53.600 156.884,53.600 157.800 C 53.600 158.570,53.780 159.200,54.000 159.200 C 54.220 159.200,54.401 159.695,54.401 160.300 C 54.402 160.905,54.776 162.012,55.232 162.760 C 55.688 163.509,55.975 164.454,55.868 164.860 C 55.762 165.267,55.816 165.600,55.989 165.600 C 56.267 165.600,58.607 167.823,59.855 169.272 C 60.105 169.562,60.957 170.340,61.746 171.000 C 62.536 171.660,63.187 172.444,63.191 172.743 C 63.197 173.068,63.449 173.190,63.821 173.047 C 64.167 172.914,64.821 173.161,65.297 173.604 C 65.767 174.042,66.387 174.400,66.675 174.400 C 66.964 174.400,67.200 174.580,67.200 174.800 C 67.200 175.020,67.560 175.200,68.000 175.200 C 68.440 175.200,68.800 175.455,68.800 175.767 C 68.800 176.175,69.214 176.301,70.278 176.216 C 71.168 176.146,71.984 176.327,72.330 176.673 C 72.645 176.988,73.160 177.147,73.474 177.027 C 74.314 176.705,76.041 178.804,75.855 179.923 C 75.771 180.430,75.967 181.110,76.291 181.434 C 76.615 181.758,76.898 182.648,76.919 183.411 C 76.941 184.175,77.103 184.800,77.279 184.800 C 77.456 184.800,77.600 185.419,77.600 186.176 C 77.600 186.933,77.760 187.652,77.956 187.773 C 78.413 188.055,78.743 190.800,78.320 190.800 C 78.144 190.800,78.000 191.070,78.000 191.400 C 78.000 191.730,78.291 192.000,78.647 192.000 C 79.089 192.000,79.229 192.244,79.091 192.774 C 78.972 193.228,79.124 193.639,79.459 193.767 C 79.897 193.935,79.969 194.439,79.771 195.934 C 79.562 197.513,79.634 197.928,80.156 198.128 C 80.552 198.280,80.800 198.842,80.800 199.587 C 80.800 200.254,81.005 200.800,81.256 200.800 C 81.567 200.800,81.637 201.432,81.475 202.800 C 81.287 204.380,81.358 204.800,81.811 204.800 C 82.263 204.800,82.331 205.192,82.131 206.650 C 81.929 208.125,82.010 208.574,82.532 208.866 C 83.029 209.144,83.145 209.659,83.018 211.016 C 82.902 212.257,83.002 212.800,83.346 212.800 C 83.639 212.800,83.858 213.378,83.881 214.212 C 83.903 214.988,84.102 215.843,84.323 216.112 C 84.544 216.380,84.723 217.314,84.722 218.187 C 84.721 219.059,84.918 219.839,85.160 219.920 C 85.813 220.138,85.693 220.800,85.000 220.800 C 84.214 220.800,84.227 221.448,85.019 221.752 C 85.491 221.933,85.575 222.324,85.375 223.395 C 85.167 224.499,85.241 224.800,85.717 224.800 C 86.159 224.800,86.360 225.341,86.461 226.800 C 86.538 227.900,86.465 228.800,86.300 228.800 C 86.135 228.800,86.000 228.980,86.000 229.200 C 86.000 229.420,86.293 229.600,86.650 229.600 C 87.154 229.600,87.248 229.861,87.067 230.764 C 86.905 231.577,87.010 231.995,87.417 232.151 C 87.845 232.316,88.000 233.069,88.000 234.987 C 88.000 236.483,88.173 237.600,88.405 237.600 C 88.650 237.600,88.713 238.204,88.565 239.131 C 88.392 240.209,88.493 240.836,88.907 241.250 C 89.286 241.629,89.466 242.510,89.415 243.738 C 89.371 244.784,89.575 246.101,89.868 246.666 C 90.534 247.950,90.532 248.000,89.800 248.000 C 89.068 248.000,88.999 249.037,89.713 249.311 C 90.406 249.577,91.170 252.917,91.136 255.534 C 91.120 256.707,91.308 257.868,91.554 258.114 C 92.176 258.736,92.110 259.200,91.400 259.200 C 91.067 259.200,90.800 259.556,90.800 260.000 C 90.800 260.444,91.067 260.800,91.400 260.800 C 91.800 260.800,92.000 261.200,92.000 262.000 L 92.000 263.200 200.000 263.200 L 308.000 263.200 308.000 261.600 C 308.000 260.483,308.172 260.000,308.569 260.000 C 309.014 260.000,309.098 259.527,308.952 257.829 C 308.799 256.038,308.891 255.588,309.483 255.252 C 310.165 254.866,310.161 254.818,309.415 254.266 C 308.772 253.791,308.720 253.578,309.129 253.086 C 309.403 252.755,309.644 251.656,309.664 250.642 C 309.685 249.629,309.844 248.800,310.017 248.800 C 310.309 248.800,310.499 246.615,310.447 243.859 C 310.435 243.231,310.684 242.459,311.000 242.143 C 311.372 241.771,311.491 241.153,311.337 240.385 C 311.151 239.456,311.242 239.200,311.758 239.200 C 312.325 239.200,312.386 238.818,312.205 236.425 C 312.079 234.762,312.157 233.550,312.398 233.401 C 312.619 233.265,312.800 232.533,312.800 231.776 C 312.800 230.820,312.983 230.400,313.400 230.400 C 313.730 230.400,314.000 230.220,314.000 230.000 C 314.000 229.780,313.730 229.600,313.400 229.600 C 312.644 229.600,312.640 229.303,313.387 228.556 C 313.771 228.171,313.892 227.561,313.737 226.785 C 313.552 225.861,313.643 225.600,314.150 225.600 C 314.507 225.600,314.800 225.330,314.800 225.000 C 314.800 224.670,314.614 224.400,314.386 224.400 C 314.108 224.400,314.101 224.158,314.365 223.665 C 314.582 223.260,314.659 222.547,314.537 222.079 C 314.408 221.587,314.570 220.973,314.921 220.621 C 315.256 220.286,315.434 219.653,315.318 219.208 C 315.202 218.765,315.408 217.770,315.775 216.997 C 316.142 216.224,316.315 215.386,316.160 215.135 C 316.005 214.884,316.200 214.443,316.594 214.155 C 317.202 213.711,317.279 213.206,317.108 210.816 C 316.997 209.267,317.025 208.000,317.168 208.000 C 317.312 208.000,317.460 207.259,317.496 206.353 C 317.532 205.447,317.857 204.379,318.218 203.980 C 318.677 203.473,318.797 202.895,318.614 202.065 C 318.463 201.374,318.531 200.767,318.777 200.614 C 319.009 200.471,319.200 199.748,319.200 199.010 C 319.200 198.271,319.368 197.607,319.573 197.533 C 319.778 197.460,320.016 196.637,320.101 195.705 C 320.187 194.773,320.379 193.888,320.528 193.738 C 320.678 193.589,320.800 192.957,320.800 192.333 C 320.800 191.552,321.003 191.200,321.453 191.200 C 321.983 191.200,322.065 190.901,321.891 189.600 C 321.728 188.385,321.813 188.000,322.243 188.000 C 322.679 188.000,322.751 187.635,322.555 186.407 C 322.361 185.197,322.443 184.758,322.893 184.586 C 323.300 184.430,323.439 183.936,323.336 183.007 C 323.254 182.263,323.370 181.542,323.594 181.404 C 323.817 181.266,324.000 180.648,324.000 180.031 C 324.000 178.644,325.744 176.800,327.055 176.800 C 327.575 176.800,328.000 176.606,328.000 176.369 C 328.000 176.116,328.643 175.985,329.560 176.051 C 330.425 176.114,331.403 175.929,331.755 175.637 C 332.104 175.348,332.702 175.230,333.083 175.376 C 333.464 175.523,333.656 175.523,333.511 175.378 C 333.178 175.045,335.598 172.800,336.289 172.800 C 336.570 172.800,336.800 172.620,336.800 172.400 C 336.800 172.180,337.111 172.000,337.491 172.000 C 337.871 172.000,338.820 171.325,339.600 170.500 C 340.379 169.675,341.373 168.796,341.808 168.547 C 342.244 168.298,342.544 167.788,342.475 167.415 C 342.358 166.778,344.211 164.802,344.927 164.800 C 345.107 164.800,345.144 164.453,345.009 164.030 C 344.853 163.536,345.002 163.127,345.425 162.890 C 345.831 162.663,346.166 161.803,346.295 160.651 C 346.411 159.623,346.662 158.685,346.853 158.567 C 347.044 158.449,347.200 157.643,347.200 156.776 C 347.200 155.642,347.368 155.200,347.800 155.200 C 348.276 155.200,348.400 154.622,348.400 152.400 C 348.400 150.105,348.285 149.600,347.763 149.600 C 347.241 149.600,347.151 149.203,347.263 147.404 C 347.356 145.908,347.240 145.147,346.900 145.016 C 346.625 144.911,346.400 144.279,346.400 143.613 C 346.400 142.946,346.220 142.400,346.000 142.400 C 345.780 142.400,345.600 142.040,345.600 141.600 C 345.600 141.160,345.420 140.800,345.200 140.800 C 344.980 140.800,344.800 140.480,344.800 140.088 C 344.800 139.697,344.440 139.117,344.000 138.800 C 343.560 138.483,343.200 137.936,343.200 137.584 C 343.200 137.232,342.750 136.553,342.200 136.075 C 341.650 135.597,341.200 134.847,341.200 134.408 C 341.200 133.875,340.736 133.417,339.800 133.026 C 339.030 132.704,338.400 132.244,338.400 132.003 C 338.400 131.762,338.175 131.605,337.900 131.654 C 337.137 131.789,334.400 130.316,334.400 129.770 C 334.400 129.506,333.787 129.174,333.039 129.034 C 332.290 128.893,331.574 128.509,331.447 128.179 C 331.288 127.763,330.910 127.657,330.213 127.833 C 329.512 128.008,329.137 127.902,328.975 127.480 C 328.792 127.003,328.242 126.915,326.372 127.064 C 324.405 127.221,324.000 127.147,324.000 126.627 C 324.000 126.141,323.549 126.000,322.000 126.000 C 320.471 126.000,320.000 126.144,320.000 126.613 C 320.000 127.064,319.632 127.200,318.602 127.131 C 317.833 127.079,316.987 127.253,316.722 127.518 C 316.457 127.783,315.646 128.000,314.920 128.000 C 314.194 128.000,313.600 128.180,313.600 128.400 C 313.600 128.620,313.161 128.800,312.624 128.800 C 312.087 128.800,311.531 128.987,311.390 129.216 C 311.248 129.445,310.788 129.523,310.366 129.389 C 309.852 129.226,309.600 129.337,309.600 129.725 C 309.600 130.043,309.060 130.527,308.400 130.800 C 307.740 131.073,307.200 131.475,307.200 131.692 C 307.200 131.910,306.766 131.978,306.228 131.843 C 305.434 131.644,305.232 131.764,305.127 132.499 C 305.026 133.209,304.764 133.384,303.890 133.323 C 303.276 133.281,302.886 133.416,303.016 133.626 C 303.145 133.835,302.981 134.109,302.651 134.236 C 302.321 134.363,302.135 134.688,302.239 134.958 C 302.343 135.229,302.062 135.782,301.614 136.187 C 301.166 136.592,300.800 137.256,300.800 137.662 C 300.800 138.068,300.518 138.400,300.173 138.400 C 299.728 138.400,299.620 138.632,299.800 139.200 C 299.946 139.659,299.872 140.000,299.627 140.000 C 299.392 140.000,299.200 140.276,299.200 140.613 C 299.200 140.949,298.949 141.322,298.642 141.439 C 298.241 141.593,298.143 142.099,298.294 143.227 C 298.432 144.255,298.349 144.800,298.053 144.800 C 297.804 144.800,297.600 145.340,297.600 146.000 C 297.600 146.660,297.447 147.200,297.259 147.200 C 297.072 147.200,296.919 149.180,296.919 151.600 C 296.919 154.020,297.072 156.000,297.259 156.000 C 297.447 156.000,297.600 156.330,297.600 156.733 C 297.600 157.137,297.719 157.586,297.865 157.732 C 298.011 157.878,298.194 158.583,298.272 159.298 C 298.350 160.014,298.591 160.660,298.807 160.733 C 299.023 160.807,299.200 161.302,299.200 161.833 C 299.200 162.365,299.380 162.800,299.600 162.800 C 299.820 162.800,300.000 163.250,300.000 163.800 C 300.000 164.422,299.773 164.800,299.400 164.800 C 299.070 164.800,298.426 165.174,297.969 165.631 C 297.512 166.088,296.882 166.364,296.569 166.243 C 296.256 166.123,296.000 166.246,296.000 166.516 C 296.000 167.146,294.909 167.825,293.344 168.168 C 292.629 168.326,291.894 168.850,291.587 169.424 C 291.220 170.110,290.838 170.339,290.330 170.178 C 289.835 170.021,289.600 170.148,289.600 170.573 C 289.600 170.927,289.262 171.200,288.823 171.200 C 288.395 171.200,287.780 171.580,287.455 172.043 C 287.130 172.507,286.662 172.762,286.416 172.610 C 286.169 172.457,285.603 172.796,285.155 173.366 C 284.708 173.935,284.085 174.400,283.771 174.400 C 283.457 174.400,283.200 174.592,283.200 174.827 C 283.200 175.072,282.859 175.146,282.399 175.000 C 281.583 174.741,280.400 175.553,280.400 176.371 C 280.400 176.607,280.130 176.800,279.800 176.800 C 279.470 176.800,279.200 176.980,279.200 177.200 C 279.200 177.420,278.840 177.600,278.400 177.600 C 277.960 177.600,277.600 177.780,277.600 178.000 C 277.600 178.220,277.150 178.400,276.600 178.400 C 276.050 178.400,275.599 178.535,275.597 178.700 C 275.593 179.106,273.614 180.000,272.720 180.000 C 272.324 180.000,271.999 180.135,271.997 180.300 C 271.993 180.659,270.056 181.600,269.320 181.600 C 269.034 181.600,268.800 181.780,268.800 182.000 C 268.800 182.220,268.451 182.400,268.024 182.400 C 267.597 182.400,267.129 182.591,266.986 182.823 C 266.839 183.060,266.233 183.139,265.613 183.003 C 264.792 182.823,264.435 182.933,264.246 183.423 C 264.049 183.937,263.687 184.030,262.642 183.834 C 261.635 183.645,261.234 183.736,261.059 184.191 C 260.930 184.526,260.470 184.800,260.036 184.800 C 259.602 184.800,259.136 184.980,259.000 185.200 C 258.112 186.637,249.600 184.940,249.600 183.326 C 249.600 183.037,249.275 182.800,248.878 182.800 C 247.950 182.800,245.200 180.292,245.200 179.446 C 245.200 179.091,244.975 178.845,244.700 178.900 C 244.425 178.955,244.244 178.777,244.298 178.505 C 244.357 178.209,244.036 178.048,243.498 178.105 C 242.830 178.176,242.617 178.005,242.666 177.437 C 242.702 177.018,242.477 176.420,242.166 176.109 C 241.855 175.798,241.600 175.650,241.600 175.782 C 241.600 175.913,241.060 175.741,240.400 175.400 C 239.740 175.059,239.200 174.568,239.200 174.310 C 239.200 174.052,238.299 172.995,237.197 171.960 C 235.837 170.683,235.273 169.875,235.440 169.440 C 235.580 169.076,235.482 168.800,235.214 168.800 C 234.474 168.800,233.580 167.717,233.815 167.105 C 233.940 166.780,233.611 166.327,233.021 166.011 C 232.467 165.715,231.905 165.132,231.773 164.716 C 231.641 164.300,231.008 163.422,230.367 162.766 C 229.725 162.109,229.200 161.219,229.200 160.786 C 229.200 160.354,228.960 160.000,228.668 160.000 C 228.375 160.000,227.881 159.505,227.570 158.900 C 227.260 158.295,226.687 157.507,226.297 157.148 C 225.907 156.789,225.687 156.238,225.808 155.923 C 225.941 155.576,225.629 155.136,225.014 154.807 C 224.456 154.509,224.000 153.935,224.000 153.532 C 224.000 153.130,223.801 152.800,223.557 152.800 C 223.314 152.800,223.222 152.520,223.353 152.177 C 223.580 151.587,221.896 149.600,221.169 149.600 C 220.751 149.600,220.220 147.982,220.348 147.100 C 220.404 146.715,220.234 146.400,219.969 146.400 C 219.358 146.400,218.429 145.192,218.413 144.375 C 218.406 144.032,218.036 143.360,217.591 142.882 C 217.019 142.269,216.856 141.718,217.034 141.007 C 217.219 140.268,217.128 140.000,216.690 140.000 C 215.981 140.000,215.454 138.635,215.569 137.100 C 215.628 136.316,215.464 136.000,214.999 136.000 C 214.528 136.000,214.417 135.777,214.600 135.200 C 214.740 134.760,214.707 134.400,214.527 134.400 C 214.347 134.399,213.679 133.951,213.042 133.403 L 211.884 132.407 212.842 131.491 C 213.369 130.987,214.570 130.220,215.510 129.787 C 216.943 129.128,217.185 128.854,217.003 128.100 C 216.883 127.605,216.942 127.200,217.134 127.200 C 217.668 127.200,219.721 125.187,219.456 124.923 C 219.328 124.795,219.578 124.192,220.012 123.583 C 220.445 122.975,220.800 122.279,220.800 122.038 C 220.800 121.797,221.082 121.600,221.427 121.600 C 221.872 121.600,221.980 121.368,221.800 120.800 C 221.621 120.236,221.728 120.000,222.163 120.000 C 222.635 120.000,222.724 119.718,222.540 118.800 C 222.349 117.845,222.438 117.600,222.977 117.600 C 223.472 117.600,223.586 117.385,223.399 116.798 C 223.243 116.304,223.348 115.918,223.672 115.794 C 224.451 115.495,224.424 106.909,223.643 106.427 C 223.244 106.180,223.145 105.561,223.294 104.241 C 223.444 102.913,223.361 102.400,222.995 102.400 C 222.717 102.400,222.374 101.787,222.234 101.039 C 222.093 100.290,221.713 99.576,221.389 99.451 C 221.065 99.327,220.800 98.949,220.800 98.613 C 220.800 98.276,220.620 98.000,220.400 98.000 C 220.180 98.000,220.000 97.730,220.000 97.400 C 220.000 97.070,219.820 96.800,219.600 96.800 C 219.380 96.800,219.200 96.575,219.200 96.300 C 219.199 96.025,218.736 95.260,218.169 94.600 C 215.442 91.423,214.303 90.399,213.484 90.391 C 212.998 90.386,212.150 90.030,211.600 89.600 C 211.050 89.170,210.285 88.814,209.900 88.809 C 209.515 88.804,209.200 88.620,209.200 88.400 C 209.200 88.180,208.671 88.000,208.024 88.000 C 207.377 88.000,206.736 87.820,206.600 87.600 C 206.464 87.380,205.823 87.200,205.176 87.200 C 204.397 87.200,204.000 86.997,204.000 86.600 C 204.000 86.270,203.730 86.000,203.400 86.000 C 203.070 86.000,202.800 86.182,202.800 86.405 C 202.800 86.778,201.732 86.727,198.280 86.187 C 197.608 86.082,197.257 86.169,197.404 86.406 C 197.538 86.623,197.367 86.800,197.024 86.800 C 196.681 86.800,196.400 86.620,196.400 86.400 C 196.400 86.180,196.130 86.000,195.800 86.000 C 195.470 86.000,195.200 86.270,195.200 86.600 M103.800 277.200 C 103.664 277.420,103.113 277.600,102.576 277.600 C 102.039 277.600,101.600 277.780,101.600 278.000 C 101.600 278.220,101.320 278.400,100.978 278.400 C 100.636 278.400,99.781 278.939,99.078 279.598 C 98.375 280.257,97.638 280.797,97.440 280.798 C 96.841 280.801,94.400 283.517,94.400 284.180 C 94.400 284.521,94.118 284.800,93.773 284.800 C 93.328 284.800,93.220 285.032,93.400 285.600 C 93.573 286.144,93.472 286.400,93.086 286.400 C 92.643 286.400,92.561 286.852,92.714 288.442 C 92.825 289.597,92.736 290.597,92.509 290.742 C 91.751 291.229,91.488 292.800,92.164 292.800 C 92.667 292.800,92.759 293.248,92.658 295.200 C 92.589 296.520,92.683 297.600,92.866 297.600 C 93.050 297.600,93.200 297.960,93.200 298.400 C 93.200 298.850,93.467 299.200,93.810 299.200 C 94.168 299.200,94.519 299.696,94.660 300.400 C 94.792 301.060,95.063 301.600,95.263 301.600 C 95.736 301.600,98.400 304.264,98.400 304.737 C 98.400 304.936,98.940 305.208,99.600 305.340 C 100.312 305.482,100.800 305.831,100.800 306.198 C 100.800 306.644,101.057 306.751,101.730 306.582 C 102.324 306.433,102.850 306.578,103.188 306.986 C 103.934 307.885,296.000 307.845,296.000 306.946 C 296.000 306.606,296.453 306.400,297.200 306.400 C 297.860 306.400,298.400 306.220,298.400 306.000 C 298.400 305.780,298.672 305.600,299.005 305.600 C 299.920 305.600,301.232 304.765,302.931 303.100 C 303.773 302.275,304.640 301.600,304.858 301.600 C 305.076 301.600,305.150 301.272,305.022 300.870 C 304.860 300.359,305.094 299.978,305.800 299.600 C 306.508 299.221,306.740 298.841,306.577 298.328 C 306.430 297.864,306.583 297.505,306.995 297.347 C 307.532 297.140,307.598 296.725,307.376 294.946 C 307.186 293.426,307.260 292.610,307.628 292.166 C 308.056 291.651,308.054 291.481,307.620 291.212 C 307.303 291.016,307.170 290.467,307.290 289.843 C 307.399 289.270,307.250 288.486,306.957 288.100 C 306.665 287.715,306.420 286.995,306.413 286.500 C 306.406 286.005,306.217 285.600,305.992 285.600 C 305.757 285.600,305.691 285.177,305.836 284.600 C 306.011 283.902,305.923 283.598,305.543 283.593 C 305.245 283.590,304.221 282.780,303.268 281.793 C 302.315 280.807,301.390 280.000,301.211 280.000 C 301.033 280.000,300.773 279.548,300.634 278.995 C 300.425 278.160,300.213 278.032,299.391 278.238 C 298.783 278.391,298.400 278.315,298.400 278.043 C 298.400 277.800,297.871 277.600,297.224 277.600 C 296.577 277.600,295.936 277.420,295.800 277.200 C 295.457 276.646,104.143 276.646,103.800 277.200 " stroke="none" fill="#fcb42c" fill-rule="evenodd"/><path id="path1" d="M197.798 85.603 C 197.491 86.101,198.021 86.273,200.700 86.547 C 201.914 86.672,202.800 86.602,202.800 86.381 C 202.800 86.172,203.070 86.000,203.400 86.000 C 203.730 86.000,204.000 86.270,204.000 86.600 C 204.000 86.997,204.397 87.200,205.176 87.200 C 205.823 87.200,206.464 87.380,206.600 87.600 C 206.736 87.820,207.377 88.000,208.024 88.000 C 208.671 88.000,209.200 88.180,209.200 88.400 C 209.200 88.620,209.515 88.804,209.900 88.809 C 210.285 88.814,211.050 89.170,211.600 89.600 C 212.150 90.030,212.998 90.386,213.484 90.391 C 214.303 90.399,215.442 91.423,218.169 94.600 C 218.736 95.260,219.199 96.025,219.200 96.300 C 219.200 96.575,219.380 96.800,219.600 96.800 C 219.820 96.800,220.000 97.070,220.000 97.400 C 220.000 97.730,220.180 98.000,220.400 98.000 C 220.620 98.000,220.800 98.276,220.800 98.613 C 220.800 98.949,221.065 99.327,221.389 99.451 C 221.713 99.576,222.093 100.290,222.234 101.039 C 222.379 101.811,222.729 102.400,223.045 102.400 C 223.866 102.400,223.718 100.894,222.800 99.908 C 222.360 99.436,222.000 98.813,222.000 98.525 C 222.000 98.236,221.820 98.000,221.600 98.000 C 221.380 98.000,221.200 97.680,221.200 97.288 C 221.200 96.897,220.840 96.317,220.400 96.000 C 219.960 95.683,219.600 95.188,219.600 94.901 C 219.600 94.277,216.462 91.063,215.487 90.689 C 215.109 90.544,214.800 90.149,214.800 89.813 C 214.800 89.399,214.411 89.200,213.600 89.200 C 212.940 89.200,212.399 89.065,212.397 88.900 C 212.393 88.541,210.456 87.600,209.720 87.600 C 209.434 87.600,209.200 87.420,209.200 87.200 C 209.200 86.980,208.660 86.800,208.000 86.800 C 207.340 86.800,206.800 86.660,206.800 86.488 C 206.800 85.724,198.244 84.882,197.798 85.603 M193.900 85.891 C 193.075 85.978,192.400 86.217,192.400 86.424 C 192.400 86.631,191.986 86.800,191.480 86.800 C 190.426 86.800,188.408 87.653,188.403 88.100 C 188.401 88.265,188.040 88.400,187.600 88.400 C 187.160 88.400,186.800 88.580,186.800 88.800 C 186.800 89.020,186.480 89.200,186.088 89.200 C 185.697 89.200,185.117 89.560,184.800 90.000 C 184.483 90.440,183.903 90.800,183.512 90.800 C 183.120 90.800,182.800 91.031,182.800 91.313 C 182.800 91.594,181.945 92.736,180.900 93.850 C 178.856 96.029,178.000 97.285,178.000 98.106 C 178.000 98.391,177.640 98.883,177.200 99.200 C 176.760 99.517,176.400 100.176,176.400 100.665 C 176.400 101.153,176.220 101.664,176.000 101.800 C 175.411 102.164,175.502 103.701,176.100 103.489 C 176.375 103.392,176.557 102.927,176.505 102.456 C 176.445 101.922,176.633 101.600,177.005 101.600 C 177.332 101.600,177.600 101.322,177.600 100.983 C 177.600 100.644,177.960 99.980,178.400 99.508 C 178.840 99.036,179.201 98.368,179.202 98.025 C 179.203 97.681,180.013 96.508,181.002 95.417 C 181.991 94.326,182.800 93.111,182.800 92.717 C 182.800 92.304,183.097 91.996,183.500 91.991 C 183.885 91.986,184.650 91.630,185.200 91.200 C 185.750 90.770,186.425 90.414,186.700 90.409 C 186.975 90.404,187.200 90.220,187.200 90.000 C 187.200 89.780,187.560 89.600,188.000 89.600 C 188.440 89.600,188.801 89.465,188.803 89.300 C 188.808 88.853,190.826 88.000,191.880 88.000 C 192.386 88.000,192.800 87.820,192.800 87.600 C 192.800 87.380,193.340 87.200,194.000 87.200 C 194.800 87.200,195.200 87.000,195.200 86.600 C 195.200 86.270,195.470 86.000,195.800 86.000 C 196.130 86.000,196.400 86.180,196.400 86.400 C 196.400 86.620,196.692 86.800,197.049 86.800 C 197.580 86.800,197.608 86.691,197.200 86.200 C 196.926 85.870,196.409 85.630,196.051 85.667 C 195.693 85.704,194.725 85.805,193.900 85.891 M223.467 103.067 C 223.058 103.476,223.150 106.400,223.572 106.400 C 223.777 106.400,224.002 106.791,224.072 107.269 C 224.280 108.678,225.200 108.649,225.200 107.233 C 225.200 106.555,225.020 106.000,224.800 106.000 C 224.580 106.000,224.400 105.280,224.400 104.400 C 224.400 102.899,224.085 102.448,223.467 103.067 M174.800 107.000 C 174.800 107.330,174.620 107.600,174.400 107.600 C 174.171 107.600,174.000 108.800,174.000 110.400 C 174.000 112.000,174.171 113.200,174.400 113.200 C 174.620 113.200,174.800 113.470,174.800 113.800 C 174.800 114.130,175.070 114.400,175.400 114.400 C 175.733 114.400,176.000 114.044,176.000 113.600 C 176.000 113.160,175.820 112.800,175.600 112.800 C 175.378 112.800,175.200 111.733,175.200 110.400 C 175.200 109.067,175.378 108.000,175.600 108.000 C 175.820 108.000,176.000 107.640,176.000 107.200 C 176.000 106.756,175.733 106.400,175.400 106.400 C 175.070 106.400,174.800 106.670,174.800 107.000 M224.285 110.504 C 223.968 113.133,224.150 115.314,224.700 115.499 C 225.072 115.624,225.200 114.847,225.200 112.457 C 225.200 108.989,224.618 107.746,224.285 110.504 M174.800 116.400 C 174.800 116.840,174.980 117.200,175.200 117.200 C 175.420 117.200,175.600 117.575,175.600 118.033 C 175.600 118.991,176.533 118.879,176.723 117.899 C 176.848 117.257,175.686 115.600,175.111 115.600 C 174.940 115.600,174.800 115.960,174.800 116.400 M223.400 116.000 C 223.108 116.472,223.487 117.200,224.024 117.200 C 224.231 117.200,224.400 116.840,224.400 116.400 C 224.400 115.556,223.818 115.324,223.400 116.000 M222.472 118.469 C 222.661 119.749,223.600 119.886,223.600 118.633 C 223.600 117.961,223.381 117.600,222.972 117.600 C 222.555 117.600,222.387 117.892,222.472 118.469 M176.400 120.600 C 176.400 120.930,176.580 121.200,176.800 121.200 C 177.020 121.200,177.200 121.532,177.200 121.938 C 177.200 122.344,177.560 123.002,178.000 123.400 C 178.440 123.798,178.800 124.284,178.800 124.479 C 178.800 124.674,179.160 125.220,179.600 125.692 C 180.040 126.164,180.400 126.787,180.400 127.075 C 180.400 127.887,181.116 127.694,181.398 126.807 C 181.648 126.020,180.111 124.000,179.263 124.000 C 179.057 124.000,178.764 123.334,178.611 122.520 C 178.262 120.659,176.400 119.042,176.400 120.600 M221.692 120.475 C 221.939 121.217,222.800 121.340,222.800 120.633 C 222.800 120.285,222.515 120.000,222.167 120.000 C 221.818 120.000,221.605 120.214,221.692 120.475 M220.800 122.038 C 220.800 122.279,220.445 122.975,220.012 123.583 C 219.578 124.192,219.328 124.795,219.456 124.923 C 219.704 125.171,217.846 127.040,217.065 127.328 C 216.722 127.455,216.733 127.641,217.108 128.038 C 217.617 128.577,219.600 127.016,219.600 126.077 C 219.600 125.880,220.140 125.154,220.800 124.463 C 222.077 123.126,222.397 121.600,221.400 121.600 C 221.070 121.600,220.800 121.797,220.800 122.038 M75.000 125.881 C 73.900 125.956,72.640 126.176,72.200 126.371 C 71.760 126.566,70.545 126.946,69.500 127.215 C 68.455 127.484,67.600 127.861,67.600 128.052 C 67.600 128.243,67.328 128.400,66.995 128.400 C 66.286 128.400,64.970 129.111,63.845 130.100 C 63.407 130.485,62.895 130.800,62.706 130.800 C 61.950 130.800,60.300 132.860,60.720 133.280 C 61.172 133.732,63.200 132.023,63.200 131.191 C 63.200 130.928,63.527 130.850,64.000 131.000 C 64.440 131.140,64.800 131.095,64.800 130.901 C 64.800 130.485,67.843 128.800,68.595 128.800 C 68.881 128.800,69.217 128.533,69.342 128.207 C 69.505 127.782,69.913 127.683,70.785 127.857 C 71.724 128.045,72.000 127.958,72.000 127.474 C 72.000 126.953,72.402 126.883,74.400 127.054 C 76.362 127.223,76.800 127.150,76.800 126.658 C 76.800 126.327,77.205 125.978,77.700 125.882 C 78.783 125.674,78.040 125.673,75.000 125.881 M79.502 125.901 C 79.776 125.992,80.000 126.322,80.000 126.633 C 80.000 127.039,80.514 127.200,81.805 127.200 C 82.798 127.200,83.941 127.406,84.345 127.659 C 85.176 128.178,87.364 127.789,86.993 127.188 C 86.861 126.975,86.238 126.800,85.610 126.800 C 84.981 126.800,84.407 126.643,84.333 126.450 C 84.260 126.258,83.031 126.018,81.602 125.918 C 80.173 125.817,79.228 125.809,79.502 125.901 M318.300 125.894 C 317.255 125.976,316.400 126.214,316.400 126.422 C 316.400 126.630,315.680 126.800,314.800 126.800 C 313.920 126.800,313.200 126.980,313.200 127.200 C 313.200 127.420,312.955 127.600,312.656 127.600 C 310.858 127.600,304.998 131.394,306.127 131.827 C 306.486 131.965,307.055 131.802,307.392 131.465 C 307.729 131.128,308.364 130.738,308.802 130.599 C 309.241 130.460,309.600 130.076,309.600 129.746 C 309.600 129.337,309.844 129.223,310.366 129.389 C 310.788 129.523,311.248 129.445,311.390 129.216 C 311.531 128.987,312.087 128.800,312.624 128.800 C 313.161 128.800,313.600 128.620,313.600 128.400 C 313.600 128.180,314.194 128.000,314.920 128.000 C 315.646 128.000,316.457 127.783,316.722 127.518 C 316.987 127.253,317.833 127.079,318.602 127.131 C 319.605 127.198,320.000 127.060,320.000 126.640 C 320.000 126.319,320.405 125.978,320.900 125.882 C 322.010 125.668,321.110 125.672,318.300 125.894 M324.000 126.612 C 324.000 127.100,324.423 127.199,326.072 127.097 C 329.010 126.916,329.145 126.000,326.233 126.000 C 324.495 126.000,324.000 126.136,324.000 126.612 M328.903 127.300 C 328.997 127.575,329.581 127.800,330.202 127.800 C 330.822 127.800,331.404 128.019,331.494 128.287 C 331.584 128.555,332.275 128.890,333.029 129.032 C 333.783 129.173,334.401 129.494,334.403 129.745 C 334.408 130.362,337.537 132.026,337.823 131.562 C 338.124 131.076,337.026 130.000,336.229 130.000 C 335.883 130.000,335.600 129.820,335.600 129.600 C 335.600 129.380,335.364 129.200,335.075 129.200 C 334.787 129.200,334.164 128.840,333.692 128.400 C 333.220 127.960,332.556 127.600,332.217 127.600 C 331.878 127.600,331.600 127.420,331.600 127.200 C 331.600 126.980,330.955 126.800,330.167 126.800 C 329.196 126.800,328.788 126.961,328.903 127.300 M87.600 128.000 C 87.600 128.220,87.876 128.400,88.213 128.400 C 88.549 128.400,88.929 128.670,89.055 129.000 C 89.182 129.330,89.634 129.600,90.060 129.600 C 90.485 129.600,91.051 129.783,91.317 130.007 C 92.507 131.010,94.694 132.449,95.700 132.891 C 96.305 133.158,96.800 133.529,96.800 133.716 C 96.800 134.186,97.658 134.991,98.500 135.310 C 98.885 135.456,99.200 135.930,99.200 136.364 C 99.200 136.798,99.380 137.264,99.600 137.400 C 99.820 137.536,100.000 137.997,100.000 138.424 C 100.000 138.851,100.270 139.200,100.600 139.200 C 100.973 139.200,101.200 138.822,101.200 138.200 C 101.200 137.650,101.020 137.200,100.800 137.200 C 100.580 137.200,100.400 136.840,100.400 136.400 C 100.400 135.948,100.133 135.600,99.787 135.600 C 99.451 135.600,99.056 135.285,98.910 134.900 C 98.594 134.066,97.788 133.200,97.326 133.200 C 97.144 133.200,96.231 132.480,95.297 131.600 C 94.363 130.720,93.368 130.000,93.087 130.000 C 92.807 130.000,92.317 129.640,92.000 129.200 C 91.629 128.685,90.965 128.400,90.135 128.400 C 89.427 128.400,88.736 128.220,88.600 128.000 C 88.464 127.780,88.183 127.600,87.976 127.600 C 87.769 127.600,87.600 127.780,87.600 128.000 M182.701 129.119 C 183.039 130.000,184.411 131.365,185.301 131.707 C 186.000 131.975,186.266 133.015,185.700 133.267 C 185.535 133.340,184.967 134.255,184.437 135.300 C 183.908 136.345,183.323 137.200,183.137 137.200 C 182.952 137.200,182.800 137.650,182.800 138.200 C 182.800 138.822,183.027 139.200,183.400 139.200 C 183.730 139.200,184.000 138.868,184.000 138.462 C 184.000 138.056,184.325 137.430,184.722 137.071 C 185.119 136.711,185.693 135.783,185.997 135.009 C 186.301 134.234,186.696 133.600,186.875 133.600 C 187.590 133.600,187.166 131.916,186.400 131.716 C 185.960 131.601,185.600 131.393,185.600 131.253 C 185.599 130.794,183.813 128.950,183.120 128.693 C 182.602 128.500,182.502 128.601,182.701 129.119 M214.980 129.959 C 214.308 130.323,213.332 131.018,212.811 131.504 L 211.862 132.388 213.031 133.394 C 213.674 133.947,214.335 134.399,214.500 134.400 C 215.092 134.400,214.784 133.480,213.950 132.756 L 213.099 132.019 214.066 131.651 C 214.598 131.449,215.273 130.995,215.565 130.642 C 215.858 130.289,216.346 130.000,216.649 130.000 C 216.952 130.000,217.200 129.820,217.200 129.600 C 217.200 129.050,216.427 129.175,214.980 129.959 M303.873 132.383 C 303.377 132.885,303.287 133.207,303.592 133.395 C 304.309 133.838,305.200 133.294,305.200 132.413 C 305.200 131.422,304.831 131.414,303.873 132.383 M338.400 131.986 C 338.400 132.198,338.742 132.555,339.161 132.779 C 339.808 133.125,339.890 133.068,339.714 132.393 C 339.507 131.600,338.400 131.257,338.400 131.986 M58.500 133.798 C 58.225 134.111,58.000 134.527,58.000 134.724 C 58.000 134.920,57.460 135.646,56.800 136.337 C 56.140 137.028,55.600 137.864,55.600 138.196 C 55.600 138.528,55.420 138.800,55.200 138.800 C 54.980 138.800,54.800 139.160,54.800 139.600 C 54.800 140.040,54.620 140.400,54.400 140.400 C 54.180 140.400,54.000 140.760,54.000 141.200 C 54.000 141.640,53.820 142.000,53.600 142.000 C 53.380 142.000,53.200 142.555,53.200 143.233 C 53.200 144.649,54.120 144.678,54.328 143.269 C 54.398 142.791,54.623 142.400,54.828 142.400 C 55.033 142.400,55.200 142.040,55.200 141.600 C 55.200 141.160,55.380 140.800,55.600 140.800 C 55.820 140.800,56.000 140.513,56.000 140.162 C 56.000 139.518,57.178 137.655,58.489 136.225 C 58.880 135.798,59.200 135.213,59.200 134.925 C 59.200 134.636,59.380 134.400,59.600 134.400 C 59.820 134.400,60.000 134.130,60.000 133.800 C 60.000 133.048,59.161 133.047,58.500 133.798 M341.198 134.393 C 341.405 135.116,341.941 135.963,342.387 136.276 C 342.834 136.589,343.200 137.155,343.200 137.534 C 343.200 137.913,343.560 138.483,344.000 138.800 C 344.440 139.117,344.800 139.697,344.800 140.088 C 344.800 140.480,344.980 140.800,345.200 140.800 C 345.420 140.800,345.600 141.160,345.600 141.600 C 345.600 142.040,345.769 142.400,345.975 142.400 C 346.181 142.400,346.406 142.971,346.475 143.669 C 346.669 145.632,347.600 145.603,347.600 143.633 C 347.600 142.735,347.420 142.000,347.200 142.000 C 346.980 142.000,346.800 141.640,346.800 141.200 C 346.800 140.760,346.620 140.400,346.400 140.400 C 346.180 140.400,346.000 140.080,346.000 139.688 C 346.000 139.297,345.640 138.717,345.200 138.400 C 344.760 138.083,344.400 137.596,344.400 137.319 C 344.400 137.041,343.595 135.974,342.611 134.946 L 340.821 133.079 341.198 134.393 M214.667 135.067 C 214.206 135.527,214.375 136.000,215.000 136.000 C 215.330 136.000,215.600 135.730,215.600 135.400 C 215.600 134.775,215.127 134.606,214.667 135.067 M300.500 135.810 C 300.005 136.339,299.600 137.104,299.600 137.510 C 299.600 137.917,299.240 138.636,298.800 139.108 C 298.360 139.580,298.000 140.323,298.000 140.760 C 298.000 141.196,297.820 141.664,297.600 141.800 C 297.380 141.936,297.200 142.577,297.200 143.224 C 297.200 143.871,297.020 144.400,296.800 144.400 C 296.580 144.400,296.400 144.940,296.400 145.600 C 296.400 146.260,296.220 146.800,296.000 146.800 C 295.780 146.800,295.600 147.160,295.600 147.600 C 295.600 148.040,295.816 148.400,296.080 148.400 C 296.453 148.400,296.453 148.507,296.080 148.880 C 295.484 149.476,295.411 156.400,296.000 156.400 C 296.220 156.400,296.400 156.760,296.400 157.200 C 296.400 157.640,296.580 158.000,296.800 158.000 C 297.020 158.000,297.200 158.720,297.200 159.600 C 297.200 160.480,297.380 161.200,297.600 161.200 C 297.820 161.200,298.000 161.560,298.000 162.000 C 298.000 162.440,298.180 162.800,298.400 162.800 C 299.147 162.800,298.804 164.074,298.000 164.284 C 297.560 164.399,297.200 164.652,297.200 164.847 C 297.200 165.041,296.922 165.200,296.583 165.200 C 296.244 165.200,295.580 165.560,295.108 166.000 C 294.636 166.440,293.833 166.800,293.325 166.800 C 292.761 166.800,292.400 167.039,292.400 167.413 C 292.400 167.749,292.085 168.145,291.700 168.292 C 291.315 168.439,290.651 168.884,290.225 169.280 C 289.798 169.676,289.099 170.000,288.671 170.000 C 288.244 170.000,287.588 170.353,287.213 170.785 C 286.839 171.216,286.098 171.756,285.566 171.984 C 282.959 173.102,281.306 174.601,282.271 174.972 C 282.664 175.123,283.048 175.055,283.126 174.823 C 283.203 174.590,283.509 174.400,283.804 174.400 C 284.100 174.400,284.708 173.935,285.155 173.366 C 285.603 172.796,286.169 172.457,286.416 172.610 C 286.662 172.762,287.130 172.507,287.455 172.043 C 287.780 171.580,288.395 171.200,288.823 171.200 C 289.262 171.200,289.600 170.927,289.600 170.573 C 289.600 170.148,289.835 170.021,290.330 170.178 C 290.838 170.339,291.220 170.110,291.587 169.424 C 291.894 168.850,292.629 168.326,293.344 168.168 C 294.909 167.825,296.000 167.146,296.000 166.516 C 296.000 166.246,296.256 166.123,296.569 166.243 C 296.882 166.364,297.512 166.088,297.969 165.631 C 298.426 165.174,299.070 164.800,299.400 164.800 C 299.773 164.800,300.000 164.422,300.000 163.800 C 300.000 163.250,299.820 162.800,299.600 162.800 C 299.380 162.800,299.200 162.365,299.200 161.833 C 299.200 161.302,299.023 160.807,298.807 160.733 C 298.591 160.660,298.350 160.014,298.272 159.298 C 298.194 158.583,298.011 157.878,297.865 157.732 C 297.719 157.586,297.600 157.137,297.600 156.733 C 297.600 156.330,297.447 156.000,297.259 156.000 C 297.072 156.000,296.919 154.020,296.919 151.600 C 296.919 149.180,297.072 147.200,297.259 147.200 C 297.447 147.200,297.600 146.660,297.600 146.000 C 297.600 145.340,297.804 144.800,298.053 144.800 C 298.349 144.800,298.432 144.255,298.294 143.227 C 298.143 142.099,298.241 141.593,298.642 141.439 C 298.949 141.322,299.200 140.949,299.200 140.613 C 299.200 140.276,299.392 140.000,299.627 140.000 C 299.872 140.000,299.946 139.659,299.800 139.200 C 299.620 138.632,299.728 138.400,300.173 138.400 C 300.518 138.400,300.800 138.068,300.800 137.662 C 300.800 137.256,301.160 136.598,301.600 136.200 C 302.040 135.802,302.400 135.324,302.400 135.138 C 302.400 134.497,301.398 134.852,300.500 135.810 M215.435 137.544 C 215.120 138.053,216.121 139.993,216.700 139.997 C 217.352 140.001,217.319 138.791,216.643 137.900 C 216.052 137.121,215.751 137.033,215.435 137.544 M101.030 139.951 C 100.762 140.385,101.927 142.800,102.404 142.800 C 102.594 142.800,102.648 143.428,102.523 144.197 C 102.398 144.965,102.491 145.827,102.728 146.113 C 102.965 146.399,103.183 148.065,103.212 149.816 C 103.286 154.203,103.624 157.200,104.046 157.200 C 104.241 157.200,104.400 156.156,104.400 154.880 C 104.400 153.604,104.616 152.344,104.880 152.080 C 105.253 151.707,105.253 151.493,104.880 151.120 C 104.616 150.856,104.400 149.596,104.400 148.320 C 104.400 147.040,104.221 146.000,104.000 146.000 C 103.780 146.000,103.600 145.280,103.600 144.400 C 103.600 143.520,103.420 142.800,103.200 142.800 C 102.980 142.800,102.800 142.337,102.800 141.771 C 102.800 140.373,101.558 139.096,101.030 139.951 M182.278 140.255 C 182.125 140.408,182.000 140.824,182.000 141.178 C 182.000 141.533,181.640 142.083,181.200 142.400 C 180.760 142.717,180.400 143.297,180.400 143.688 C 180.400 144.080,180.220 144.400,180.000 144.400 C 179.780 144.400,179.600 144.760,179.600 145.200 C 179.600 145.640,179.420 146.000,179.200 146.000 C 178.980 146.000,178.800 146.360,178.800 146.800 C 178.800 147.240,178.620 147.600,178.400 147.600 C 178.180 147.600,177.999 147.825,177.998 148.100 C 177.997 148.375,177.502 149.140,176.898 149.800 C 176.294 150.460,175.545 151.495,175.232 152.100 C 174.920 152.705,174.515 153.200,174.332 153.200 C 174.150 153.200,174.000 153.520,174.000 153.912 C 174.000 154.303,173.640 154.883,173.200 155.200 C 172.760 155.517,172.400 156.097,172.400 156.488 C 172.400 156.880,172.220 157.200,172.000 157.200 C 171.780 157.200,171.600 157.443,171.600 157.741 C 171.600 158.038,171.105 158.806,170.500 159.448 C 169.895 160.089,169.145 161.106,168.832 161.707 C 168.520 162.308,168.115 162.800,167.932 162.800 C 167.750 162.800,167.599 163.025,167.598 163.300 C 167.597 163.575,167.057 164.375,166.398 165.078 C 165.739 165.781,165.200 166.525,165.200 166.730 C 165.200 166.935,164.512 167.813,163.670 168.680 C 161.913 170.491,161.183 171.861,162.309 171.234 C 163.666 170.479,165.200 168.754,165.200 167.984 C 165.200 167.553,165.404 167.200,165.653 167.200 C 166.149 167.200,167.600 165.674,167.600 165.153 C 167.600 164.974,168.140 164.275,168.800 163.600 C 169.460 162.925,170.000 162.218,170.000 162.029 C 170.000 161.839,170.541 161.105,171.203 160.397 C 171.864 159.689,172.710 158.455,173.082 157.655 C 173.455 156.855,174.083 155.909,174.480 155.553 C 174.876 155.197,175.200 154.612,175.200 154.253 C 175.200 153.894,175.380 153.600,175.600 153.600 C 175.820 153.600,176.000 153.375,176.000 153.100 C 176.001 152.825,176.451 152.077,177.000 151.438 C 177.550 150.799,178.000 149.944,178.000 149.538 C 178.000 149.132,178.205 148.800,178.456 148.800 C 179.046 148.800,179.971 147.578,179.987 146.775 C 179.994 146.432,180.376 145.748,180.835 145.255 C 181.294 144.762,181.570 144.098,181.447 143.779 C 181.324 143.457,181.455 143.200,181.745 143.200 C 182.536 143.200,183.357 141.410,182.922 140.632 C 182.721 140.272,182.431 140.103,182.278 140.255 M217.003 141.191 C 216.840 141.703,217.043 142.294,217.576 142.866 C 218.029 143.353,218.406 144.032,218.413 144.375 C 218.441 145.781,220.400 147.185,220.400 145.800 C 220.400 145.470,220.220 145.200,220.000 145.200 C 219.780 145.200,219.600 144.840,219.600 144.400 C 219.600 143.960,219.420 143.600,219.200 143.600 C 218.980 143.600,218.800 143.240,218.800 142.800 C 218.800 142.360,218.620 142.000,218.400 142.000 C 218.180 142.000,218.000 141.640,218.000 141.200 C 218.000 140.170,217.329 140.163,217.003 141.191 M52.400 145.367 C 52.400 146.039,52.619 146.400,53.028 146.400 C 53.445 146.400,53.613 146.108,53.528 145.531 C 53.339 144.251,52.400 144.114,52.400 145.367 M347.467 145.467 C 346.891 146.042,347.178 149.600,347.800 149.600 C 348.261 149.600,348.400 149.089,348.400 147.400 C 348.400 145.362,348.130 144.803,347.467 145.467 M220.294 147.300 C 220.098 147.868,220.785 149.600,221.206 149.600 C 221.904 149.600,223.574 151.603,223.353 152.177 C 223.222 152.520,223.314 152.800,223.557 152.800 C 223.801 152.800,224.000 153.130,224.000 153.532 C 224.000 153.935,224.456 154.509,225.014 154.807 C 225.629 155.136,225.941 155.576,225.808 155.923 C 225.687 156.238,225.907 156.789,226.297 157.148 C 226.687 157.507,227.260 158.295,227.570 158.900 C 227.881 159.505,228.375 160.000,228.668 160.000 C 228.960 160.000,229.200 160.354,229.200 160.786 C 229.200 161.219,229.740 162.125,230.400 162.800 C 231.060 163.475,231.600 164.194,231.600 164.398 C 231.600 164.842,233.215 166.400,233.675 166.400 C 234.327 166.400,233.972 165.563,232.800 164.337 C 232.140 163.646,231.600 162.918,231.600 162.719 C 231.600 162.520,231.061 161.781,230.402 161.078 C 229.743 160.375,229.203 159.575,229.202 159.300 C 229.201 159.025,229.020 158.800,228.800 158.800 C 228.580 158.800,228.400 158.528,228.400 158.196 C 228.400 157.864,227.860 157.028,227.200 156.337 C 226.540 155.646,226.000 154.838,226.000 154.541 C 226.000 154.243,225.820 154.000,225.600 154.000 C 225.380 154.000,225.200 153.640,225.200 153.200 C 225.200 152.760,225.050 152.400,224.868 152.400 C 224.685 152.400,224.280 151.905,223.968 151.300 C 223.655 150.695,222.906 149.660,222.302 149.000 C 221.698 148.340,221.203 147.575,221.202 147.300 C 221.201 147.025,221.035 146.800,220.833 146.800 C 220.632 146.800,220.389 147.025,220.294 147.300 M51.867 147.467 C 51.448 147.886,51.555 153.125,51.988 153.393 C 52.474 153.693,52.823 152.241,52.708 150.400 C 52.659 149.630,52.762 148.595,52.937 148.100 C 53.248 147.217,52.537 146.797,51.867 147.467 M51.600 154.776 C 51.600 155.203,51.761 155.652,51.958 155.774 C 52.388 156.040,52.897 154.881,52.578 154.364 C 52.184 153.726,51.600 153.972,51.600 154.776 M347.200 156.776 C 347.200 157.643,347.044 158.449,346.853 158.567 C 346.662 158.685,346.413 159.606,346.300 160.613 C 346.176 161.714,345.811 162.650,345.386 162.961 C 344.996 163.246,344.806 163.686,344.962 163.939 C 345.348 164.563,346.000 164.523,346.000 163.875 C 346.000 163.587,346.360 162.964,346.800 162.492 C 347.288 161.969,347.600 161.081,347.600 160.217 C 347.600 159.438,347.780 158.800,348.000 158.800 C 348.220 158.800,348.400 157.990,348.400 157.000 C 348.400 155.667,348.244 155.200,347.800 155.200 C 347.368 155.200,347.200 155.642,347.200 156.776 M52.400 158.000 C 52.400 158.880,52.580 159.600,52.800 159.600 C 53.020 159.600,53.200 160.140,53.200 160.800 C 53.200 161.460,53.380 162.000,53.600 162.000 C 53.820 162.000,54.000 162.360,54.000 162.800 C 54.000 163.240,54.180 163.600,54.400 163.600 C 54.620 163.600,54.800 164.049,54.800 164.599 C 54.800 165.707,61.302 172.578,63.300 173.582 C 63.905 173.886,64.400 174.285,64.400 174.468 C 64.400 174.650,64.636 174.800,64.925 174.800 C 65.213 174.800,65.836 175.160,66.308 175.600 C 67.320 176.543,68.800 176.661,68.800 175.800 C 68.800 175.467,68.444 175.200,68.000 175.200 C 67.560 175.200,67.200 175.020,67.200 174.800 C 67.200 174.580,66.964 174.400,66.675 174.400 C 66.387 174.400,65.767 174.042,65.297 173.604 C 64.821 173.161,64.167 172.914,63.821 173.047 C 63.449 173.190,63.197 173.068,63.191 172.743 C 63.187 172.444,62.536 171.660,61.746 171.000 C 60.957 170.340,60.105 169.562,59.855 169.272 C 58.607 167.823,56.267 165.600,55.989 165.600 C 55.816 165.600,55.762 165.267,55.868 164.860 C 55.975 164.454,55.688 163.509,55.232 162.760 C 54.776 162.012,54.402 160.905,54.401 160.300 C 54.401 159.695,54.220 159.200,54.000 159.200 C 53.780 159.200,53.600 158.570,53.600 157.800 C 53.600 156.822,53.419 156.400,53.000 156.400 C 52.567 156.400,52.400 156.844,52.400 158.000 M102.400 158.800 C 102.400 159.460,102.220 160.000,102.000 160.000 C 101.780 160.000,101.600 160.349,101.600 160.776 C 101.600 161.203,101.420 161.664,101.200 161.800 C 100.980 161.936,100.800 162.577,100.800 163.224 C 100.800 163.871,100.980 164.400,101.200 164.400 C 101.420 164.400,101.600 164.627,101.600 164.904 C 101.600 165.628,103.126 166.477,103.955 166.214 C 104.431 166.063,104.827 166.303,105.174 166.951 C 105.457 167.480,106.163 168.157,106.744 168.456 C 107.325 168.755,108.149 169.315,108.575 169.700 C 109.002 170.085,109.587 170.400,109.875 170.400 C 110.164 170.400,110.400 170.580,110.400 170.800 C 110.400 171.020,110.720 171.200,111.112 171.200 C 111.503 171.200,112.083 171.560,112.400 172.000 C 112.717 172.440,113.297 172.800,113.688 172.800 C 114.080 172.800,114.400 172.980,114.400 173.200 C 114.400 173.420,114.597 173.600,114.838 173.600 C 115.079 173.600,115.787 173.963,116.410 174.407 C 117.103 174.900,117.641 175.057,117.793 174.811 C 118.110 174.298,116.240 172.400,115.418 172.400 C 115.078 172.400,114.800 172.220,114.800 172.000 C 114.800 171.780,114.480 171.600,114.088 171.600 C 113.697 171.600,113.117 171.240,112.800 170.800 C 112.483 170.360,111.903 170.000,111.512 170.000 C 111.120 170.000,110.800 169.820,110.800 169.600 C 110.800 169.380,110.480 169.200,110.088 169.200 C 109.697 169.200,109.117 168.840,108.800 168.400 C 108.483 167.960,107.969 167.600,107.659 167.600 C 107.348 167.600,106.801 167.285,106.443 166.900 C 105.680 166.080,104.196 165.200,103.577 165.200 C 102.809 165.200,102.000 164.086,102.000 163.029 C 102.000 162.463,102.180 162.000,102.400 162.000 C 102.620 162.000,102.800 161.640,102.800 161.200 C 102.800 160.760,102.980 160.400,103.200 160.400 C 103.420 160.400,103.600 159.770,103.600 159.000 C 103.600 158.022,103.419 157.600,103.000 157.600 C 102.600 157.600,102.400 158.000,102.400 158.800 M343.475 165.768 C 342.856 166.301,342.406 167.041,342.475 167.415 C 342.544 167.788,342.244 168.298,341.808 168.547 C 341.373 168.796,340.379 169.675,339.600 170.500 C 338.820 171.325,337.871 172.000,337.491 172.000 C 337.111 172.000,336.800 172.180,336.800 172.400 C 336.800 172.620,336.570 172.800,336.289 172.800 C 336.008 172.800,335.187 173.340,334.464 174.000 C 333.742 174.660,332.928 175.200,332.655 175.200 C 332.383 175.200,331.942 175.418,331.675 175.685 C 331.409 175.951,330.473 176.117,329.595 176.054 C 328.652 175.986,328.000 176.115,328.000 176.369 C 328.000 176.606,327.575 176.800,327.055 176.800 C 325.744 176.800,324.000 178.644,324.000 180.031 C 324.000 180.648,323.823 181.262,323.606 181.396 C 323.060 181.734,323.306 184.102,323.908 184.303 C 324.226 184.409,324.400 184.032,324.400 183.233 C 324.400 182.555,324.580 182.000,324.800 182.000 C 325.020 182.000,325.200 181.357,325.200 180.571 C 325.200 178.886,325.948 178.000,327.371 178.000 C 327.937 178.000,328.400 177.820,328.400 177.600 C 328.400 177.380,329.120 177.200,330.000 177.200 C 330.880 177.200,331.600 177.020,331.600 176.800 C 331.600 176.580,331.960 176.400,332.400 176.400 C 332.840 176.400,333.200 176.136,333.200 175.813 C 333.200 175.464,333.436 175.316,333.779 175.447 C 334.098 175.570,334.762 175.294,335.255 174.835 C 335.748 174.376,336.387 174.000,336.675 174.000 C 336.964 174.000,337.200 173.820,337.200 173.600 C 337.200 173.380,337.479 173.200,337.819 173.200 C 338.529 173.200,341.726 170.149,342.115 169.100 C 342.258 168.715,342.651 168.400,342.987 168.400 C 343.324 168.400,343.600 168.080,343.600 167.688 C 343.600 167.297,343.960 166.717,344.400 166.400 C 345.178 165.839,345.503 164.800,344.900 164.800 C 344.735 164.801,344.094 165.236,343.475 165.768 M233.798 167.203 C 233.511 167.668,234.515 168.800,235.214 168.800 C 235.482 168.800,235.580 169.076,235.440 169.440 C 235.273 169.875,235.837 170.683,237.197 171.960 C 238.299 172.995,239.200 174.052,239.200 174.310 C 239.200 174.568,239.740 175.059,240.400 175.400 C 241.652 176.047,242.038 175.662,241.000 174.800 C 240.670 174.526,240.400 174.145,240.400 173.954 C 240.400 173.762,239.320 172.508,238.000 171.168 C 236.680 169.827,235.600 168.553,235.600 168.337 C 235.600 167.401,234.214 166.530,233.798 167.203 M156.062 177.077 C 153.346 179.784,150.871 182.000,150.562 182.000 C 149.912 182.000,149.811 182.636,150.403 183.002 C 150.624 183.139,150.909 182.981,151.036 182.651 C 151.163 182.321,151.504 182.142,151.796 182.254 C 152.100 182.371,153.913 180.854,156.062 178.685 C 161.267 173.432,161.600 173.042,161.282 172.570 C 161.118 172.328,158.930 174.217,156.062 177.077 M118.400 175.304 C 118.400 176.055,119.939 176.873,120.825 176.592 C 121.282 176.447,121.600 176.533,121.600 176.802 C 121.600 177.531,122.672 178.400,123.571 178.400 C 124.027 178.400,124.400 178.580,124.400 178.800 C 124.400 179.020,124.670 179.200,125.000 179.200 C 125.330 179.200,125.600 179.380,125.600 179.600 C 125.600 179.820,126.100 180.000,126.712 180.000 C 127.365 180.000,128.061 180.330,128.400 180.800 C 128.739 181.270,129.435 181.600,130.088 181.600 C 130.700 181.600,131.200 181.736,131.200 181.902 C 131.200 182.399,134.137 183.163,134.743 182.824 C 135.332 182.494,133.257 181.200,132.139 181.200 C 131.842 181.200,131.600 181.020,131.600 180.800 C 131.600 180.580,131.100 180.400,130.488 180.400 C 129.835 180.400,129.139 180.070,128.800 179.600 C 128.461 179.130,127.765 178.800,127.112 178.800 C 126.500 178.800,126.000 178.620,126.000 178.400 C 126.000 178.180,125.640 178.000,125.200 178.000 C 124.760 178.000,124.400 177.820,124.400 177.600 C 124.400 177.380,124.040 177.200,123.600 177.200 C 123.160 177.200,122.799 177.065,122.797 176.900 C 122.793 176.541,120.856 175.600,120.120 175.600 C 119.834 175.600,119.600 175.420,119.600 175.200 C 119.600 174.980,119.330 174.800,119.000 174.800 C 118.670 174.800,118.400 175.027,118.400 175.304 M278.800 176.000 C 278.800 176.220,278.440 176.400,278.000 176.400 C 277.560 176.400,277.200 176.580,277.200 176.800 C 277.200 177.020,276.840 177.200,276.400 177.200 C 275.960 177.200,275.600 177.380,275.600 177.600 C 275.600 177.820,275.240 178.000,274.800 178.000 C 274.360 178.000,274.000 178.180,274.000 178.400 C 274.000 178.620,273.542 178.800,272.983 178.800 C 272.424 178.800,271.580 179.160,271.108 179.600 C 270.636 180.040,269.833 180.400,269.325 180.400 C 268.816 180.400,268.400 180.580,268.400 180.800 C 268.400 181.020,268.040 181.200,267.600 181.200 C 267.160 181.200,266.800 181.352,266.800 181.539 C 266.800 181.725,265.000 182.310,262.800 182.839 C 260.600 183.367,258.800 183.935,258.800 184.100 C 258.800 184.265,257.360 184.400,255.600 184.400 C 253.733 184.400,252.400 184.233,252.400 184.000 C 252.400 183.780,252.040 183.600,251.600 183.600 C 251.160 183.600,250.800 183.420,250.800 183.200 C 250.800 182.980,250.574 182.800,250.298 182.800 C 250.022 182.800,249.066 182.112,248.173 181.272 C 246.425 179.625,245.200 178.960,245.200 179.659 C 245.200 180.342,248.078 182.800,248.878 182.800 C 249.275 182.800,249.600 183.037,249.600 183.326 C 249.600 184.940,258.112 186.637,259.000 185.200 C 259.136 184.980,259.602 184.800,260.036 184.800 C 260.470 184.800,260.930 184.526,261.059 184.191 C 261.234 183.736,261.635 183.645,262.642 183.834 C 263.687 184.030,264.049 183.937,264.246 183.423 C 264.435 182.933,264.792 182.823,265.613 183.003 C 266.233 183.139,266.839 183.060,266.986 182.823 C 267.129 182.591,267.597 182.400,268.024 182.400 C 268.451 182.400,268.800 182.220,268.800 182.000 C 268.800 181.780,269.034 181.600,269.320 181.600 C 270.056 181.600,271.993 180.659,271.997 180.300 C 271.999 180.135,272.324 180.000,272.720 180.000 C 273.614 180.000,275.593 179.106,275.597 178.700 C 275.599 178.535,276.050 178.400,276.600 178.400 C 277.150 178.400,277.600 178.220,277.600 178.000 C 277.600 177.780,277.960 177.600,278.400 177.600 C 278.840 177.600,279.200 177.420,279.200 177.200 C 279.200 176.980,279.470 176.800,279.800 176.800 C 280.130 176.800,280.400 176.530,280.400 176.200 C 280.400 175.867,280.044 175.600,279.600 175.600 C 279.160 175.600,278.800 175.780,278.800 176.000 M69.423 176.310 C 68.892 176.841,69.286 177.200,70.400 177.200 C 71.060 177.200,71.600 177.380,71.600 177.600 C 71.600 177.820,72.063 178.000,72.629 178.000 C 74.052 178.000,74.800 178.886,74.800 180.571 C 74.800 181.357,74.980 182.000,75.200 182.000 C 75.420 182.000,75.600 182.720,75.600 183.600 C 75.600 184.480,75.780 185.200,76.000 185.200 C 76.220 185.200,76.400 185.740,76.400 186.400 C 76.400 187.060,76.580 187.600,76.800 187.600 C 77.020 187.600,77.200 188.320,77.200 189.200 C 77.200 190.474,77.347 190.800,77.920 190.800 C 78.688 190.800,78.719 188.244,77.956 187.773 C 77.760 187.652,77.600 186.933,77.600 186.176 C 77.600 185.419,77.456 184.800,77.279 184.800 C 77.103 184.800,76.941 184.175,76.919 183.411 C 76.898 182.648,76.615 181.758,76.291 181.434 C 75.967 181.110,75.771 180.430,75.855 179.923 C 76.041 178.804,74.314 176.705,73.474 177.027 C 73.160 177.147,72.655 177.010,72.352 176.721 C 71.788 176.184,69.825 175.909,69.423 176.310 M242.590 177.215 C 242.187 177.868,243.083 178.677,243.617 178.143 C 243.906 177.854,243.856 177.578,243.453 177.244 C 243.023 176.887,242.798 176.880,242.590 177.215 M135.710 183.300 C 135.807 183.575,136.224 183.768,136.637 183.729 C 137.050 183.690,137.509 183.852,137.655 184.090 C 137.802 184.328,138.516 184.587,139.241 184.666 C 139.966 184.746,140.671 184.992,140.808 185.214 C 140.945 185.435,141.495 185.536,142.029 185.438 C 142.563 185.340,143.135 185.246,143.300 185.230 C 144.211 185.139,143.409 184.400,142.400 184.400 C 141.740 184.400,141.200 184.220,141.200 184.000 C 141.200 183.780,140.401 183.600,139.424 183.600 C 138.447 183.600,137.536 183.420,137.400 183.200 C 137.036 182.611,135.499 182.702,135.710 183.300 M148.300 183.476 C 147.915 183.576,147.600 183.825,147.600 184.029 C 147.600 184.233,147.071 184.400,146.424 184.400 C 145.777 184.400,145.145 184.565,145.020 184.767 C 144.720 185.253,147.227 185.794,147.550 185.314 C 147.687 185.109,148.115 184.825,148.500 184.683 C 148.885 184.541,149.200 184.149,149.200 183.813 C 149.200 183.476,149.155 183.221,149.100 183.246 C 149.045 183.272,148.685 183.375,148.300 183.476 M322.584 184.826 C 322.439 185.060,322.437 185.870,322.578 186.626 C 322.782 187.710,322.706 188.000,322.218 188.000 C 321.538 188.000,321.447 188.340,321.924 189.092 C 322.512 190.017,323.600 188.136,323.600 186.195 C 323.600 184.490,323.159 183.896,322.584 184.826 M320.800 192.333 C 320.800 192.957,320.678 193.589,320.528 193.738 C 320.379 193.888,320.187 194.773,320.101 195.705 C 320.016 196.637,319.778 197.460,319.573 197.533 C 319.368 197.607,319.200 198.271,319.200 199.010 C 319.200 199.748,319.009 200.471,318.777 200.614 C 318.531 200.767,318.463 201.374,318.614 202.065 C 318.794 202.883,318.678 203.471,318.243 203.952 C 317.896 204.336,317.564 205.359,317.506 206.225 C 317.448 207.091,317.255 207.907,317.077 208.038 C 316.638 208.361,317.192 210.452,317.643 210.174 C 317.839 210.052,318.000 209.603,318.000 209.176 C 318.000 208.749,318.180 208.400,318.400 208.400 C 318.620 208.400,318.800 207.500,318.800 206.400 C 318.800 205.300,318.980 204.400,319.200 204.400 C 319.420 204.400,319.600 203.500,319.600 202.400 C 319.600 201.300,319.780 200.400,320.000 200.400 C 320.220 200.400,320.400 199.860,320.400 199.200 C 320.400 198.540,320.580 198.000,320.800 198.000 C 321.020 198.000,321.200 197.100,321.200 196.000 C 321.200 194.900,321.380 194.000,321.600 194.000 C 321.820 194.000,322.000 193.370,322.000 192.600 C 322.000 191.622,321.819 191.200,321.400 191.200 C 321.008 191.200,320.800 191.593,320.800 192.333 M78.000 192.600 C 78.000 192.930,78.270 193.200,78.600 193.200 C 78.930 193.200,79.200 192.930,79.200 192.600 C 79.200 192.270,78.930 192.000,78.600 192.000 C 78.270 192.000,78.000 192.270,78.000 192.600 M78.800 194.976 C 78.800 195.733,78.965 196.455,79.167 196.580 C 79.608 196.852,80.168 194.596,79.806 194.010 C 79.289 193.173,78.800 193.642,78.800 194.976 M79.600 199.567 C 79.600 200.465,79.780 201.200,80.000 201.200 C 80.220 201.200,80.400 201.740,80.400 202.400 C 80.400 203.200,80.600 203.600,81.000 203.600 C 81.419 203.600,81.600 203.178,81.600 202.200 C 81.600 201.430,81.431 200.800,81.225 200.800 C 81.019 200.800,80.794 200.229,80.725 199.531 C 80.531 197.568,79.600 197.597,79.600 199.567 M81.200 206.600 C 81.200 207.590,81.380 208.400,81.600 208.400 C 81.820 208.400,82.002 207.995,82.005 207.500 C 82.008 207.005,82.119 206.195,82.252 205.700 C 82.429 205.038,82.322 204.800,81.847 204.800 C 81.347 204.800,81.200 205.209,81.200 206.600 M82.000 210.600 C 82.000 211.916,82.148 212.417,82.500 212.300 C 82.784 212.205,83.000 211.471,83.000 210.601 C 83.000 209.730,82.784 208.995,82.500 208.901 C 82.148 208.783,82.000 209.284,82.000 210.600 M82.800 214.576 C 82.800 215.553,82.980 216.464,83.200 216.600 C 83.420 216.736,83.600 217.634,83.600 218.597 C 83.600 220.016,83.757 220.396,84.430 220.610 C 85.412 220.921,86.008 220.499,85.248 220.030 C 84.957 219.850,84.721 219.008,84.722 218.152 C 84.723 217.298,84.544 216.380,84.323 216.112 C 84.102 215.843,83.903 214.988,83.881 214.212 C 83.820 212.034,82.800 212.378,82.800 214.576 M316.200 214.400 C 316.064 214.620,316.063 214.978,316.197 215.196 C 316.332 215.413,316.142 216.224,315.775 216.997 C 315.408 217.770,315.202 218.765,315.318 219.208 C 315.434 219.653,315.256 220.286,314.921 220.621 C 314.570 220.973,314.408 221.587,314.537 222.079 C 314.659 222.547,314.582 223.260,314.365 223.665 C 314.043 224.266,314.120 224.400,314.786 224.400 C 315.469 224.400,315.600 224.143,315.600 222.800 C 315.600 221.920,315.780 221.200,316.000 221.200 C 316.220 221.200,316.400 220.300,316.400 219.200 C 316.400 218.100,316.580 217.200,316.800 217.200 C 317.020 217.200,317.200 216.480,317.200 215.600 C 317.200 214.081,316.739 213.528,316.200 214.400 M84.400 223.000 C 84.400 223.770,84.560 224.400,84.757 224.400 C 85.206 224.400,85.705 222.493,85.389 221.982 C 84.884 221.165,84.400 221.664,84.400 223.000 M85.200 226.600 C 85.200 227.590,85.275 228.400,85.367 228.400 C 85.459 228.400,85.774 228.492,86.067 228.605 C 86.478 228.762,86.568 228.349,86.461 226.805 C 86.276 224.122,85.200 223.948,85.200 226.600 M313.737 226.785 C 313.898 227.588,313.769 228.173,313.339 228.604 C 312.560 229.383,312.857 229.763,313.970 229.410 C 315.061 229.063,315.225 225.600,314.150 225.600 C 313.643 225.600,313.552 225.861,313.737 226.785 M86.000 230.576 C 86.000 231.113,86.180 231.664,86.400 231.800 C 86.620 231.936,86.800 233.387,86.800 235.024 C 86.800 236.741,86.969 238.000,87.200 238.000 C 87.420 238.000,87.600 238.349,87.600 238.776 C 87.600 240.010,88.288 240.102,88.588 238.907 C 88.752 238.252,88.690 237.763,88.430 237.677 C 88.183 237.594,88.000 236.439,88.000 234.954 C 88.000 233.064,87.844 232.315,87.417 232.151 C 87.010 231.995,86.905 231.577,87.067 230.764 C 87.248 229.861,87.154 229.600,86.650 229.600 C 86.228 229.600,86.000 229.942,86.000 230.576 M312.800 231.776 C 312.800 232.533,312.636 233.254,312.436 233.378 C 311.838 233.747,312.043 237.200,312.663 237.200 C 313.023 237.200,313.200 236.672,313.200 235.600 C 313.200 234.720,313.380 234.000,313.600 234.000 C 313.820 234.000,314.000 233.190,314.000 232.200 C 314.000 230.867,313.844 230.400,313.400 230.400 C 312.983 230.400,312.800 230.820,312.800 231.776 M311.337 240.385 C 311.491 241.153,311.372 241.771,311.000 242.143 C 310.684 242.459,310.435 243.231,310.447 243.859 C 310.499 246.615,310.309 248.800,310.017 248.800 C 309.844 248.800,309.685 249.629,309.664 250.642 C 309.644 251.656,309.426 252.728,309.179 253.025 C 308.712 253.588,308.974 254.400,309.624 254.400 C 309.831 254.400,310.000 254.130,310.000 253.800 C 310.000 253.470,310.180 253.200,310.400 253.200 C 310.620 253.200,310.800 252.300,310.800 251.200 C 310.800 250.100,310.980 249.200,311.200 249.200 C 311.433 249.200,311.600 247.867,311.600 246.000 C 311.600 244.133,311.767 242.800,312.000 242.800 C 312.220 242.800,312.400 241.990,312.400 241.000 C 312.400 239.605,312.254 239.200,311.750 239.200 C 311.243 239.200,311.152 239.461,311.337 240.385 M87.600 241.200 C 87.600 241.640,87.780 242.000,88.000 242.000 C 88.222 242.000,88.400 243.067,88.400 244.400 C 88.400 245.890,88.568 246.800,88.843 246.800 C 89.116 246.800,89.199 247.225,89.059 247.900 C 88.934 248.505,88.930 248.775,89.049 248.500 C 89.169 248.225,89.522 248.000,89.833 248.000 C 90.529 248.000,90.530 247.943,89.868 246.666 C 89.575 246.101,89.371 244.794,89.414 243.761 C 89.465 242.529,89.274 241.628,88.857 241.142 C 88.035 240.181,87.600 240.201,87.600 241.200 M89.200 250.343 C 89.200 251.008,89.380 251.664,89.600 251.800 C 89.820 251.936,90.006 253.342,90.013 254.924 C 90.025 257.744,90.547 259.200,91.544 259.200 C 92.129 259.200,92.128 258.688,91.543 258.103 C 91.292 257.852,91.101 256.584,91.120 255.286 C 91.156 252.695,90.387 249.529,89.662 249.287 C 89.381 249.194,89.200 249.606,89.200 250.343 M309.013 255.579 C 308.884 255.788,308.861 256.868,308.962 257.979 C 309.105 259.552,309.018 260.000,308.573 260.000 C 308.171 260.000,308.000 260.478,308.000 261.600 L 308.000 263.200 200.000 263.200 L 92.000 263.200 92.000 262.000 C 92.000 261.200,91.800 260.800,91.400 260.800 C 90.613 260.800,90.592 263.049,91.372 263.829 C 91.866 264.323,106.789 264.388,200.472 264.301 L 309.000 264.200 309.122 262.300 C 309.189 261.255,309.414 260.400,309.622 260.400 C 309.830 260.400,310.000 259.230,310.000 257.800 C 310.000 255.433,309.625 254.589,309.013 255.579 M103.600 276.000 C 103.600 276.220,103.060 276.400,102.400 276.400 C 101.740 276.400,101.200 276.580,101.200 276.800 C 101.200 277.020,100.920 277.200,100.578 277.200 C 100.236 277.200,99.381 277.739,98.678 278.398 C 97.975 279.057,97.257 279.597,97.082 279.598 C 96.616 279.601,95.005 281.289,94.693 282.101 C 94.546 282.485,94.149 282.800,93.813 282.800 C 93.426 282.800,93.200 283.169,93.200 283.800 C 93.200 284.422,93.427 284.800,93.800 284.800 C 94.130 284.800,94.400 284.521,94.400 284.180 C 94.400 283.517,96.841 280.801,97.440 280.798 C 97.638 280.797,98.375 280.257,99.078 279.598 C 99.781 278.939,100.636 278.400,100.978 278.400 C 101.320 278.400,101.600 278.220,101.600 278.000 C 101.600 277.780,102.039 277.600,102.576 277.600 C 103.113 277.600,103.664 277.420,103.800 277.200 C 104.143 276.646,295.457 276.646,295.800 277.200 C 295.936 277.420,296.562 277.600,297.190 277.600 C 297.819 277.600,298.401 277.804,298.484 278.053 C 298.576 278.327,298.983 278.396,299.518 278.226 C 300.619 277.877,300.673 277.200,299.600 277.200 C 299.160 277.200,298.800 277.020,298.800 276.800 C 298.800 276.580,298.260 276.400,297.600 276.400 C 296.940 276.400,296.400 276.220,296.400 276.000 C 296.400 275.734,264.000 275.600,200.000 275.600 C 136.000 275.600,103.600 275.734,103.600 276.000 M300.692 279.230 C 300.803 279.653,301.038 280.000,301.215 280.000 C 301.391 280.000,302.315 280.807,303.268 281.793 C 304.873 283.455,306.000 284.063,306.000 283.268 C 306.000 282.810,301.953 279.006,301.145 278.704 C 300.648 278.519,300.539 278.645,300.692 279.230 M305.828 284.671 C 305.677 285.064,305.745 285.448,305.977 285.526 C 306.210 285.603,306.406 286.057,306.413 286.533 C 306.420 287.010,306.665 287.715,306.957 288.100 C 307.250 288.486,307.399 289.270,307.290 289.843 C 307.168 290.482,307.304 291.017,307.642 291.226 C 308.081 291.497,308.092 291.668,307.697 292.063 C 307.171 292.589,307.038 294.312,307.442 295.365 C 307.851 296.432,308.400 295.637,308.400 293.976 C 308.400 293.109,308.580 292.400,308.800 292.400 C 309.020 292.400,309.200 292.040,309.200 291.600 C 309.200 291.160,309.020 290.800,308.800 290.800 C 308.580 290.800,308.400 290.080,308.400 289.200 C 308.400 288.320,308.220 287.600,308.000 287.600 C 307.780 287.600,307.600 287.142,307.600 286.583 C 307.600 285.151,306.217 283.658,305.828 284.671 M92.400 285.767 C 92.400 286.115,92.685 286.400,93.033 286.400 C 93.740 286.400,93.617 285.539,92.875 285.292 C 92.614 285.205,92.400 285.418,92.400 285.767 M91.600 288.767 C 91.600 289.885,91.420 290.800,91.200 290.800 C 90.980 290.800,90.800 291.160,90.800 291.600 C 90.800 292.040,90.997 292.400,91.237 292.400 C 91.478 292.400,91.769 292.040,91.884 291.600 C 91.999 291.160,92.262 290.800,92.469 290.800 C 93.032 290.800,92.681 287.089,92.100 286.898 C 91.744 286.781,91.600 287.319,91.600 288.767 M91.600 294.721 C 91.600 296.678,93.033 300.232,94.219 301.216 C 94.539 301.481,94.800 301.862,94.800 302.062 C 94.800 302.537,97.463 305.200,97.938 305.200 C 98.138 305.200,98.523 305.466,98.793 305.792 C 99.376 306.493,101.498 307.600,102.261 307.600 C 102.558 307.600,102.800 307.780,102.800 308.000 C 102.800 308.266,135.192 308.400,199.176 308.400 C 262.996 308.400,295.636 308.265,295.800 308.000 C 295.936 307.780,296.667 307.600,297.424 307.600 C 298.181 307.600,298.800 307.420,298.800 307.200 C 298.800 306.980,299.072 306.800,299.405 306.800 C 300.645 306.800,305.200 303.035,305.200 302.011 C 305.200 301.244,304.465 301.596,302.931 303.100 C 301.232 304.765,299.920 305.600,299.005 305.600 C 298.672 305.600,298.400 305.780,298.400 306.000 C 298.400 306.220,297.860 306.400,297.200 306.400 C 296.453 306.400,296.000 306.606,296.000 306.946 C 296.000 307.845,103.934 307.885,103.188 306.986 C 102.850 306.578,102.324 306.433,101.730 306.582 C 101.057 306.751,100.800 306.644,100.800 306.198 C 100.800 305.831,100.312 305.482,99.600 305.340 C 98.940 305.208,98.400 304.937,98.400 304.737 C 98.400 304.264,95.736 301.600,95.263 301.600 C 95.064 301.600,94.792 301.060,94.660 300.400 C 94.519 299.696,94.168 299.200,93.810 299.200 C 93.467 299.200,93.200 298.850,93.200 298.400 C 93.200 297.960,93.050 297.600,92.866 297.600 C 92.683 297.600,92.589 296.520,92.658 295.200 C 92.757 293.293,92.661 292.800,92.191 292.800 C 91.752 292.800,91.600 293.293,91.600 294.721 M306.600 297.600 C 306.308 298.072,306.687 298.800,307.224 298.800 C 307.431 298.800,307.600 298.440,307.600 298.000 C 307.600 297.156,307.018 296.924,306.600 297.600 M305.421 299.814 C 304.842 300.252,304.759 300.519,305.096 300.856 C 305.584 301.344,306.800 300.468,306.800 299.629 C 306.800 299.049,306.354 299.109,305.421 299.814 " stroke="none" fill="#fccb71" fill-rule="evenodd"/></g></svg>